<?xml version="1.0" encoding="utf-8"?>
<!-- Generator: Adobe Illustrator 22.1.0, SVG Export Plug-In . SVG Version: 6.00 Build 0)  -->
<svg version="1.1" id="图层_1" xmlns="http://www.w3.org/2000/svg" xmlns:xlink="http://www.w3.org/1999/xlink" x="0px" y="0px"
	 viewBox="0 0 32 32" style="enable-background:new 0 0 32 32;" xml:space="preserve">
<style type="text/css">
	.st0{fill:#DFBD81;}
	.st1{fill:#CFAD76;}
	.st2{fill:#DFBC80;}
</style>
<path class="st0" d="M16,1C7.7,1,1,7.7,1,16c0,8.3,6.7,15,15,15c8.3,0,15-6.7,15-15C31,7.7,24.3,1,16,1z M19,19h-6v-6h6V19z"/>
<path class="st1" d="M16,3.1c-7.2,0-13,5.8-13,13s5.8,13,13,13s13-5.8,13-13S23.2,3.1,16,3.1z M19,19h-6v-6h6V19z"/>
<path class="st2" d="M11.7,11.9v8.3h8.7v-8.3H11.7z M19,19h-6v-6h6V19z"/>
</svg>
